# xmcd
# Track frame offsets:
# 150
# 15930
# 44536
# 82354
#
# Disc length: 1475 seconds
# Revision: 0
# Processed by: cddbd v1.5.1PL2 Copyright (c) Steve Scherf et al.
# Submitted via: VisiTrax 2.10.0.248 - For more info visit www.synapsa.com
#
DISCID=2a05c104
DTITLE=Rachel Stevens - Sweet dreams my L.A. ex
DYEAR=2003
DGENRE=Pop
TTITLE0=Sweet dreams my L.A. ex
TTITLE1=BMR club mix
TTITLE2=Bimbo Jones Club mix
TTITLE3=BMR peaktime mix
EXTD=
EXTT0=
EXTT1=
EXTT2=
EXTT3=
PLAYORDER=
